<?xml version="1.0" encoding="utf-8" standalone="no"?>
<!DOCTYPE svg PUBLIC "-//W3C//DTD SVG 1.1//EN"
  "http://www.w3.org/Graphics/SVG/1.1/DTD/svg11.dtd">
<!-- Created with matplotlib (https://matplotlib.org/) -->
<svg height="222.97625pt" version="1.1" viewBox="0 0 586.683125 222.97625" width="586.683125pt" xmlns="http://www.w3.org/2000/svg" xmlns:xlink="http://www.w3.org/1999/xlink">
 <defs>
  <style type="text/css">
*{stroke-linecap:butt;stroke-linejoin:round;}
  </style>
 </defs>
 <g id="figure_1">
  <g id="patch_1">
   <path d="M 0 222.97625 
L 586.683125 222.97625 
L 586.683125 0 
L 0 0 
z
" style="fill:#ffffff;"/>
  </g>
  <g id="axes_1">
   <g id="patch_2">
    <path d="M 43.803125 185.398125 
L 287.294034 185.398125 
L 287.294034 22.318125 
L 43.803125 22.318125 
z
" style="fill:#ffffff;"/>
   </g>
   <g id="matplotlib.axis_1">
    <g id="xtick_1">
     <g id="line2d_1">
      <path clip-path="url(#pe1be7fc6c9)" d="M 64.932501 185.398125 
L 64.932501 22.318125 
" style="fill:none;stroke:#b0b0b0;stroke-linecap:square;stroke-opacity:0.2;stroke-width:0.8;"/>
     </g>
     <g id="line2d_2">
      <defs>
       <path d="M 0 0 
L 0 3.5 
" id="m11c6caeb6a" style="stroke:#000000;stroke-width:0.8;"/>
      </defs>
      <g>
       <use style="stroke:#000000;stroke-width:0.8;" x="64.932501" xlink:href="#m11c6caeb6a" y="185.398125"/>
      </g>
     </g>
     <g id="text_1">
      <!-- 0 -->
      <defs>
       <path d="M 31.78125 66.40625 
Q 24.171875 66.40625 20.328125 58.90625 
Q 16.5 51.421875 16.5 36.375 
Q 16.5 21.390625 20.328125 13.890625 
Q 24.171875 6.390625 31.78125 6.390625 
Q 39.453125 6.390625 43.28125 13.890625 
Q 47.125 21.390625 47.125 36.375 
Q 47.125 51.421875 43.28125 58.90625 
Q 39.453125 66.40625 31.78125 66.40625 
z
M 31.78125 74.21875 
Q 44.046875 74.21875 50.515625 64.515625 
Q 56.984375 54.828125 56.984375 36.375 
Q 56.984375 17.96875 50.515625 8.265625 
Q 44.046875 -1.421875 31.78125 -1.421875 
Q 19.53125 -1.421875 13.0625 8.265625 
Q 6.59375 17.96875 6.59375 36.375 
Q 6.59375 54.828125 13.0625 64.515625 
Q 19.53125 74.21875 31.78125 74.21875 
z
" id="DejaVuSans-48"/>
      </defs>
      <g transform="translate(61.751251 199.996562)scale(0.1 -0.1)">
       <use xlink:href="#DejaVuSans-48"/>
      </g>
     </g>
    </g>
    <g id="xtick_2">
     <g id="line2d_3">
      <path clip-path="url(#pe1be7fc6c9)" d="M 109.650758 185.398125 
L 109.650758 22.318125 
" style="fill:none;stroke:#b0b0b0;stroke-linecap:square;stroke-opacity:0.2;stroke-width:0.8;"/>
     </g>
     <g id="line2d_4">
      <g>
       <use style="stroke:#000000;stroke-width:0.8;" x="109.650758" xlink:href="#m11c6caeb6a" y="185.398125"/>
      </g>
     </g>
     <g id="text_2">
      <!-- 2 -->
      <defs>
       <path d="M 19.1875 8.296875 
L 53.609375 8.296875 
L 53.609375 0 
L 7.328125 0 
L 7.328125 8.296875 
Q 12.9375 14.109375 22.625 23.890625 
Q 32.328125 33.6875 34.8125 36.53125 
Q 39.546875 41.84375 41.421875 45.53125 
Q 43.3125 49.21875 43.3125 52.78125 
Q 43.3125 58.59375 39.234375 62.25 
Q 35.15625 65.921875 28.609375 65.921875 
Q 23.96875 65.921875 18.8125 64.3125 
Q 13.671875 62.703125 7.8125 59.421875 
L 7.8125 69.390625 
Q 13.765625 71.78125 18.9375 73 
Q 24.125 74.21875 28.421875 74.21875 
Q 39.75 74.21875 46.484375 68.546875 
Q 53.21875 62.890625 53.21875 53.421875 
Q 53.21875 48.921875 51.53125 44.890625 
Q 49.859375 40.875 45.40625 35.40625 
Q 44.1875 33.984375 37.640625 27.21875 
Q 31.109375 20.453125 19.1875 8.296875 
z
" id="DejaVuSans-50"/>
      </defs>
      <g transform="translate(106.469508 199.996562)scale(0.1 -0.1)">
       <use xlink:href="#DejaVuSans-50"/>
      </g>
     </g>
    </g>
    <g id="xtick_3">
     <g id="line2d_5">
      <path clip-path="url(#pe1be7fc6c9)" d="M 154.369015 185.398125 
L 154.369015 22.318125 
" style="fill:none;stroke:#b0b0b0;stroke-linecap:square;stroke-opacity:0.2;stroke-width:0.8;"/>
     </g>
     <g id="line2d_6">
      <g>
       <use style="stroke:#000000;stroke-width:0.8;" x="154.369015" xlink:href="#m11c6caeb6a" y="185.398125"/>
      </g>
     </g>
     <g id="text_3">
      <!-- 4 -->
      <defs>
       <path d="M 37.796875 64.3125 
L 12.890625 25.390625 
L 37.796875 25.390625 
z
M 35.203125 72.90625 
L 47.609375 72.90625 
L 47.609375 25.390625 
L 58.015625 25.390625 
L 58.015625 17.1875 
L 47.609375 17.1875 
L 47.609375 0 
L 37.796875 0 
L 37.796875 17.1875 
L 4.890625 17.1875 
L 4.890625 26.703125 
z
" id="DejaVuSans-52"/>
      </defs>
      <g transform="translate(151.187765 199.996562)scale(0.1 -0.1)">
       <use xlink:href="#DejaVuSans-52"/>
      </g>
     </g>
    </g>
    <g id="xtick_4">
     <g id="line2d_7">
      <path clip-path="url(#pe1be7fc6c9)" d="M 199.087272 185.398125 
L 199.087272 22.318125 
" style="fill:none;stroke:#b0b0b0;stroke-linecap:square;stroke-opacity:0.2;stroke-width:0.8;"/>
     </g>
     <g id="line2d_8">
      <g>
       <use style="stroke:#000000;stroke-width:0.8;" x="199.087272" xlink:href="#m11c6caeb6a" y="185.398125"/>
      </g>
     </g>
     <g id="text_4">
      <!-- 6 -->
      <defs>
       <path d="M 33.015625 40.375 
Q 26.375 40.375 22.484375 35.828125 
Q 18.609375 31.296875 18.609375 23.390625 
Q 18.609375 15.53125 22.484375 10.953125 
Q 26.375 6.390625 33.015625 6.390625 
Q 39.65625 6.390625 43.53125 10.953125 
Q 47.40625 15.53125 47.40625 23.390625 
Q 47.40625 31.296875 43.53125 35.828125 
Q 39.65625 40.375 33.015625 40.375 
z
M 52.59375 71.296875 
L 52.59375 62.3125 
Q 48.875 64.0625 45.09375 64.984375 
Q 41.3125 65.921875 37.59375 65.921875 
Q 27.828125 65.921875 22.671875 59.328125 
Q 17.53125 52.734375 16.796875 39.40625 
Q 19.671875 43.65625 24.015625 45.921875 
Q 28.375 48.1875 33.59375 48.1875 
Q 44.578125 48.1875 50.953125 41.515625 
Q 57.328125 34.859375 57.328125 23.390625 
Q 57.328125 12.15625 50.6875 5.359375 
Q 44.046875 -1.421875 33.015625 -1.421875 
Q 20.359375 -1.421875 13.671875 8.265625 
Q 6.984375 17.96875 6.984375 36.375 
Q 6.984375 53.65625 15.1875 63.9375 
Q 23.390625 74.21875 37.203125 74.21875 
Q 40.921875 74.21875 44.703125 73.484375 
Q 48.484375 72.75 52.59375 71.296875 
z
" id="DejaVuSans-54"/>
      </defs>
      <g transform="translate(195.906022 199.996562)scale(0.1 -0.1)">
       <use xlink:href="#DejaVuSans-54"/>
      </g>
     </g>
    </g>
    <g id="xtick_5">
     <g id="line2d_9">
      <path clip-path="url(#pe1be7fc6c9)" d="M 243.805529 185.398125 
L 243.805529 22.318125 
" style="fill:none;stroke:#b0b0b0;stroke-linecap:square;stroke-opacity:0.2;stroke-width:0.8;"/>
     </g>
     <g id="line2d_10">
      <g>
       <use style="stroke:#000000;stroke-width:0.8;" x="243.805529" xlink:href="#m11c6caeb6a" y="185.398125"/>
      </g>
     </g>
     <g id="text_5">
      <!-- 8 -->
      <defs>
       <path d="M 31.78125 34.625 
Q 24.75 34.625 20.71875 30.859375 
Q 16.703125 27.09375 16.703125 20.515625 
Q 16.703125 13.921875 20.71875 10.15625 
Q 24.75 6.390625 31.78125 6.390625 
Q 38.8125 6.390625 42.859375 10.171875 
Q 46.921875 13.96875 46.921875 20.515625 
Q 46.921875 27.09375 42.890625 30.859375 
Q 38.875 34.625 31.78125 34.625 
z
M 21.921875 38.8125 
Q 15.578125 40.375 12.03125 44.71875 
Q 8.5 49.078125 8.5 55.328125 
Q 8.5 64.0625 14.71875 69.140625 
Q 20.953125 74.21875 31.78125 74.21875 
Q 42.671875 74.21875 48.875 69.140625 
Q 55.078125 64.0625 55.078125 55.328125 
Q 55.078125 49.078125 51.53125 44.71875 
Q 48 40.375 41.703125 38.8125 
Q 48.828125 37.15625 52.796875 32.3125 
Q 56.78125 27.484375 56.78125 20.515625 
Q 56.78125 9.90625 50.3125 4.234375 
Q 43.84375 -1.421875 31.78125 -1.421875 
Q 19.734375 -1.421875 13.25 4.234375 
Q 6.78125 9.90625 6.78125 20.515625 
Q 6.78125 27.484375 10.78125 32.3125 
Q 14.796875 37.15625 21.921875 38.8125 
z
M 18.3125 54.390625 
Q 18.3125 48.734375 21.84375 45.5625 
Q 25.390625 42.390625 31.78125 42.390625 
Q 38.140625 42.390625 41.71875 45.5625 
Q 45.3125 48.734375 45.3125 54.390625 
Q 45.3125 60.0625 41.71875 63.234375 
Q 38.140625 66.40625 31.78125 66.40625 
Q 25.390625 66.40625 21.84375 63.234375 
Q 18.3125 60.0625 18.3125 54.390625 
z
" id="DejaVuSans-56"/>
      </defs>
      <g transform="translate(240.624279 199.996562)scale(0.1 -0.1)">
       <use xlink:href="#DejaVuSans-56"/>
      </g>
     </g>
    </g>
    <g id="text_6">
     <!-- Example index $i$ -->
     <defs>
      <path d="M 9.8125 72.90625 
L 55.90625 72.90625 
L 55.90625 64.59375 
L 19.671875 64.59375 
L 19.671875 43.015625 
L 54.390625 43.015625 
L 54.390625 34.71875 
L 19.671875 34.71875 
L 19.671875 8.296875 
L 56.78125 8.296875 
L 56.78125 0 
L 9.8125 0 
z
" id="DejaVuSans-69"/>
      <path d="M 54.890625 54.6875 
L 35.109375 28.078125 
L 55.90625 0 
L 45.3125 0 
L 29.390625 21.484375 
L 13.484375 0 
L 2.875 0 
L 24.125 28.609375 
L 4.6875 54.6875 
L 15.28125 54.6875 
L 29.78125 35.203125 
L 44.28125 54.6875 
z
" id="DejaVuSans-120"/>
      <path d="M 34.28125 27.484375 
Q 23.390625 27.484375 19.1875 25 
Q 14.984375 22.515625 14.984375 16.5 
Q 14.984375 11.71875 18.140625 8.90625 
Q 21.296875 6.109375 26.703125 6.109375 
Q 34.1875 6.109375 38.703125 11.40625 
Q 43.21875 16.703125 43.21875 25.484375 
L 43.21875 27.484375 
z
M 52.203125 31.203125 
L 52.203125 0 
L 43.21875 0 
L 43.21875 8.296875 
Q 40.140625 3.328125 35.546875 0.953125 
Q 30.953125 -1.421875 24.3125 -1.421875 
Q 15.921875 -1.421875 10.953125 3.296875 
Q 6 8.015625 6 15.921875 
Q 6 25.140625 12.171875 29.828125 
Q 18.359375 34.515625 30.609375 34.515625 
L 43.21875 34.515625 
L 43.21875 35.40625 
Q 43.21875 41.609375 39.140625 45 
Q 35.0625 48.390625 27.6875 48.390625 
Q 23 48.390625 18.546875 47.265625 
Q 14.109375 46.140625 10.015625 43.890625 
L 10.015625 52.203125 
Q 14.9375 54.109375 19.578125 55.046875 
Q 24.21875 56 28.609375 56 
Q 40.484375 56 46.34375 49.84375 
Q 52.203125 43.703125 52.203125 31.203125 
z
" id="DejaVuSans-97"/>
      <path d="M 52 44.1875 
Q 55.375 50.25 60.0625 53.125 
Q 64.75 56 71.09375 56 
Q 79.640625 56 84.28125 50.015625 
Q 88.921875 44.046875 88.921875 33.015625 
L 88.921875 0 
L 79.890625 0 
L 79.890625 32.71875 
Q 79.890625 40.578125 77.09375 44.375 
Q 74.3125 48.1875 68.609375 48.1875 
Q 61.625 48.1875 57.5625 43.546875 
Q 53.515625 38.921875 53.515625 30.90625 
L 53.515625 0 
L 44.484375 0 
L 44.484375 32.71875 
Q 44.484375 40.625 41.703125 44.40625 
Q 38.921875 48.1875 33.109375 48.1875 
Q 26.21875 48.1875 22.15625 43.53125 
Q 18.109375 38.875 18.109375 30.90625 
L 18.109375 0 
L 9.078125 0 
L 9.078125 54.6875 
L 18.109375 54.6875 
L 18.109375 46.1875 
Q 21.1875 51.21875 25.484375 53.609375 
Q 29.78125 56 35.6875 56 
Q 41.65625 56 45.828125 52.96875 
Q 50 49.953125 52 44.1875 
z
" id="DejaVuSans-109"/>
      <path d="M 18.109375 8.203125 
L 18.109375 -20.796875 
L 9.078125 -20.796875 
L 9.078125 54.6875 
L 18.109375 54.6875 
L 18.109375 46.390625 
Q 20.953125 51.265625 25.265625 53.625 
Q 29.59375 56 35.59375 56 
Q 45.5625 56 51.78125 48.09375 
Q 58.015625 40.1875 58.015625 27.296875 
Q 58.015625 14.40625 51.78125 6.484375 
Q 45.5625 -1.421875 35.59375 -1.421875 
Q 29.59375 -1.421875 25.265625 0.953125 
Q 20.953125 3.328125 18.109375 8.203125 
z
M 48.6875 27.296875 
Q 48.6875 37.203125 44.609375 42.84375 
Q 40.53125 48.484375 33.40625 48.484375 
Q 26.265625 48.484375 22.1875 42.84375 
Q 18.109375 37.203125 18.109375 27.296875 
Q 18.109375 17.390625 22.1875 11.75 
Q 26.265625 6.109375 33.40625 6.109375 
Q 40.53125 6.109375 44.609375 11.75 
Q 48.6875 17.390625 48.6875 27.296875 
z
" id="DejaVuSans-112"/>
      <path d="M 9.421875 75.984375 
L 18.40625 75.984375 
L 18.40625 0 
L 9.421875 0 
z
" id="DejaVuSans-108"/>
      <path d="M 56.203125 29.59375 
L 56.203125 25.203125 
L 14.890625 25.203125 
Q 15.484375 15.921875 20.484375 11.0625 
Q 25.484375 6.203125 34.421875 6.203125 
Q 39.59375 6.203125 44.453125 7.46875 
Q 49.3125 8.734375 54.109375 11.28125 
L 54.109375 2.78125 
Q 49.265625 0.734375 44.1875 -0.34375 
Q 39.109375 -1.421875 33.890625 -1.421875 
Q 20.796875 -1.421875 13.15625 6.1875 
Q 5.515625 13.8125 5.515625 26.8125 
Q 5.515625 40.234375 12.765625 48.109375 
Q 20.015625 56 32.328125 56 
Q 43.359375 56 49.78125 48.890625 
Q 56.203125 41.796875 56.203125 29.59375 
z
M 47.21875 32.234375 
Q 47.125 39.59375 43.09375 43.984375 
Q 39.0625 48.390625 32.421875 48.390625 
Q 24.90625 48.390625 20.390625 44.140625 
Q 15.875 39.890625 15.1875 32.171875 
z
" id="DejaVuSans-101"/>
      <path id="DejaVuSans-32"/>
      <path d="M 9.421875 54.6875 
L 18.40625 54.6875 
L 18.40625 0 
L 9.421875 0 
z
M 9.421875 75.984375 
L 18.40625 75.984375 
L 18.40625 64.59375 
L 9.421875 64.59375 
z
" id="DejaVuSans-105"/>
      <path d="M 54.890625 33.015625 
L 54.890625 0 
L 45.90625 0 
L 45.90625 32.71875 
Q 45.90625 40.484375 42.875 44.328125 
Q 39.84375 48.1875 33.796875 48.1875 
Q 26.515625 48.1875 22.3125 43.546875 
Q 18.109375 38.921875 18.109375 30.90625 
L 18.109375 0 
L 9.078125 0 
L 9.078125 54.6875 
L 18.109375 54.6875 
L 18.109375 46.1875 
Q 21.34375 51.125 25.703125 53.5625 
Q 30.078125 56 35.796875 56 
Q 45.21875 56 50.046875 50.171875 
Q 54.890625 44.34375 54.890625 33.015625 
z
" id="DejaVuSans-110"/>
      <path d="M 45.40625 46.390625 
L 45.40625 75.984375 
L 54.390625 75.984375 
L 54.390625 0 
L 45.40625 0 
L 45.40625 8.203125 
Q 42.578125 3.328125 38.25 0.953125 
Q 33.9375 -1.421875 27.875 -1.421875 
Q 17.96875 -1.421875 11.734375 6.484375 
Q 5.515625 14.40625 5.515625 27.296875 
Q 5.515625 40.1875 11.734375 48.09375 
Q 17.96875 56 27.875 56 
Q 33.9375 56 38.25 53.625 
Q 42.578125 51.265625 45.40625 46.390625 
z
M 14.796875 27.296875 
Q 14.796875 17.390625 18.875 11.75 
Q 22.953125 6.109375 30.078125 6.109375 
Q 37.203125 6.109375 41.296875 11.75 
Q 45.40625 17.390625 45.40625 27.296875 
Q 45.40625 37.203125 41.296875 42.84375 
Q 37.203125 48.484375 30.078125 48.484375 
Q 22.953125 48.484375 18.875 42.84375 
Q 14.796875 37.203125 14.796875 27.296875 
z
" id="DejaVuSans-100"/>
      <path d="M 18.3125 75.984375 
L 27.296875 75.984375 
L 25.09375 64.59375 
L 16.109375 64.59375 
z
M 14.203125 54.6875 
L 23.1875 54.6875 
L 12.5 0 
L 3.515625 0 
z
" id="DejaVuSans-Oblique-105"/>
     </defs>
     <g transform="translate(125.49858 213.67625)scale(0.1 -0.1)">
      <use transform="translate(0 0.015625)" xlink:href="#DejaVuSans-69"/>
      <use transform="translate(63.183594 0.015625)" xlink:href="#DejaVuSans-120"/>
      <use transform="translate(122.363281 0.015625)" xlink:href="#DejaVuSans-97"/>
      <use transform="translate(183.642578 0.015625)" xlink:href="#DejaVuSans-109"/>
      <use transform="translate(281.054688 0.015625)" xlink:href="#DejaVuSans-112"/>
      <use transform="translate(344.53125 0.015625)" xlink:href="#DejaVuSans-108"/>
      <use transform="translate(372.314453 0.015625)" xlink:href="#DejaVuSans-101"/>
      <use transform="translate(433.837891 0.015625)" xlink:href="#DejaVuSans-32"/>
      <use transform="translate(465.625 0.015625)" xlink:href="#DejaVuSans-105"/>
      <use transform="translate(493.408203 0.015625)" xlink:href="#DejaVuSans-110"/>
      <use transform="translate(556.787109 0.015625)" xlink:href="#DejaVuSans-100"/>
      <use transform="translate(620.263672 0.015625)" xlink:href="#DejaVuSans-101"/>
      <use transform="translate(681.787109 0.015625)" xlink:href="#DejaVuSans-120"/>
      <use transform="translate(740.966797 0.015625)" xlink:href="#DejaVuSans-32"/>
      <use transform="translate(772.753906 0.015625)" xlink:href="#DejaVuSans-Oblique-105"/>
     </g>
    </g>
   </g>
   <g id="matplotlib.axis_2">
    <g id="ytick_1">
     <g id="line2d_11">
      <path clip-path="url(#pe1be7fc6c9)" d="M 43.803125 185.398125 
L 287.294034 185.398125 
" style="fill:none;stroke:#b0b0b0;stroke-linecap:square;stroke-opacity:0.2;stroke-width:0.8;"/>
     </g>
     <g id="line2d_12">
      <defs>
       <path d="M 0 0 
L -3.5 0 
" id="md1902f25ed" style="stroke:#000000;stroke-width:0.8;"/>
      </defs>
      <g>
       <use style="stroke:#000000;stroke-width:0.8;" x="43.803125" xlink:href="#md1902f25ed" y="185.398125"/>
      </g>
     </g>
     <g id="text_7">
      <!-- 2.0 -->
      <defs>
       <path d="M 10.6875 12.40625 
L 21 12.40625 
L 21 0 
L 10.6875 0 
z
" id="DejaVuSans-46"/>
      </defs>
      <g transform="translate(20.9 189.197344)scale(0.1 -0.1)">
       <use xlink:href="#DejaVuSans-50"/>
       <use x="63.623047" xlink:href="#DejaVuSans-46"/>
       <use x="95.410156" xlink:href="#DejaVuSans-48"/>
      </g>
     </g>
    </g>
    <g id="ytick_2">
     <g id="line2d_13">
      <path clip-path="url(#pe1be7fc6c9)" d="M 43.803125 144.628125 
L 287.294034 144.628125 
" style="fill:none;stroke:#b0b0b0;stroke-linecap:square;stroke-opacity:0.2;stroke-width:0.8;"/>
     </g>
     <g id="line2d_14">
      <g>
       <use style="stroke:#000000;stroke-width:0.8;" x="43.803125" xlink:href="#md1902f25ed" y="144.628125"/>
      </g>
     </g>
     <g id="text_8">
      <!-- 2.5 -->
      <defs>
       <path d="M 10.796875 72.90625 
L 49.515625 72.90625 
L 49.515625 64.59375 
L 19.828125 64.59375 
L 19.828125 46.734375 
Q 21.96875 47.46875 24.109375 47.828125 
Q 26.265625 48.1875 28.421875 48.1875 
Q 40.625 48.1875 47.75 41.5 
Q 54.890625 34.8125 54.890625 23.390625 
Q 54.890625 11.625 47.5625 5.09375 
Q 40.234375 -1.421875 26.90625 -1.421875 
Q 22.3125 -1.421875 17.546875 -0.640625 
Q 12.796875 0.140625 7.71875 1.703125 
L 7.71875 11.625 
Q 12.109375 9.234375 16.796875 8.0625 
Q 21.484375 6.890625 26.703125 6.890625 
Q 35.15625 6.890625 40.078125 11.328125 
Q 45.015625 15.765625 45.015625 23.390625 
Q 45.015625 31 40.078125 35.4375 
Q 35.15625 39.890625 26.703125 39.890625 
Q 22.75 39.890625 18.8125 39.015625 
Q 14.890625 38.140625 10.796875 36.28125 
z
" id="DejaVuSans-53"/>
      </defs>
      <g transform="translate(20.9 148.427344)scale(0.1 -0.1)">
       <use xlink:href="#DejaVuSans-50"/>
       <use x="63.623047" xlink:href="#DejaVuSans-46"/>
       <use x="95.410156" xlink:href="#DejaVuSans-53"/>
      </g>
     </g>
    </g>
    <g id="ytick_3">
     <g id="line2d_15">
      <path clip-path="url(#pe1be7fc6c9)" d="M 43.803125 103.858125 
L 287.294034 103.858125 
" style="fill:none;stroke:#b0b0b0;stroke-linecap:square;stroke-opacity:0.2;stroke-width:0.8;"/>
     </g>
     <g id="line2d_16">
      <g>
       <use style="stroke:#000000;stroke-width:0.8;" x="43.803125" xlink:href="#md1902f25ed" y="103.858125"/>
      </g>
     </g>
     <g id="text_9">
      <!-- 3.0 -->
      <defs>
       <path d="M 40.578125 39.3125 
Q 47.65625 37.796875 51.625 33 
Q 55.609375 28.21875 55.609375 21.1875 
Q 55.609375 10.40625 48.1875 4.484375 
Q 40.765625 -1.421875 27.09375 -1.421875 
Q 22.515625 -1.421875 17.65625 -0.515625 
Q 12.796875 0.390625 7.625 2.203125 
L 7.625 11.71875 
Q 11.71875 9.328125 16.59375 8.109375 
Q 21.484375 6.890625 26.8125 6.890625 
Q 36.078125 6.890625 40.9375 10.546875 
Q 45.796875 14.203125 45.796875 21.1875 
Q 45.796875 27.640625 41.28125 31.265625 
Q 36.765625 34.90625 28.71875 34.90625 
L 20.21875 34.90625 
L 20.21875 43.015625 
L 29.109375 43.015625 
Q 36.375 43.015625 40.234375 45.921875 
Q 44.09375 48.828125 44.09375 54.296875 
Q 44.09375 59.90625 40.109375 62.90625 
Q 36.140625 65.921875 28.71875 65.921875 
Q 24.65625 65.921875 20.015625 65.03125 
Q 15.375 64.15625 9.8125 62.3125 
L 9.8125 71.09375 
Q 15.4375 72.65625 20.34375 73.4375 
Q 25.25 74.21875 29.59375 74.21875 
Q 40.828125 74.21875 47.359375 69.109375 
Q 53.90625 64.015625 53.90625 55.328125 
Q 53.90625 49.265625 50.4375 45.09375 
Q 46.96875 40.921875 40.578125 39.3125 
z
" id="DejaVuSans-51"/>
      </defs>
      <g transform="translate(20.9 107.657344)scale(0.1 -0.1)">
       <use xlink:href="#DejaVuSans-51"/>
       <use x="63.623047" xlink:href="#DejaVuSans-46"/>
       <use x="95.410156" xlink:href="#DejaVuSans-48"/>
      </g>
     </g>
    </g>
    <g id="ytick_4">
     <g id="line2d_17">
      <path clip-path="url(#pe1be7fc6c9)" d="M 43.803125 63.088125 
L 287.294034 63.088125 
" style="fill:none;stroke:#b0b0b0;stroke-linecap:square;stroke-opacity:0.2;stroke-width:0.8;"/>
     </g>
     <g id="line2d_18">
      <g>
       <use style="stroke:#000000;stroke-width:0.8;" x="43.803125" xlink:href="#md1902f25ed" y="63.088125"/>
      </g>
     </g>
     <g id="text_10">
      <!-- 3.5 -->
      <g transform="translate(20.9 66.887344)scale(0.1 -0.1)">
       <use xlink:href="#DejaVuSans-51"/>
       <use x="63.623047" xlink:href="#DejaVuSans-46"/>
       <use x="95.410156" xlink:href="#DejaVuSans-53"/>
      </g>
     </g>
    </g>
    <g id="ytick_5">
     <g id="line2d_19">
      <path clip-path="url(#pe1be7fc6c9)" d="M 43.803125 22.318125 
L 287.294034 22.318125 
" style="fill:none;stroke:#b0b0b0;stroke-linecap:square;stroke-opacity:0.2;stroke-width:0.8;"/>
     </g>
     <g id="line2d_20">
      <g>
       <use style="stroke:#000000;stroke-width:0.8;" x="43.803125" xlink:href="#md1902f25ed" y="22.318125"/>
      </g>
     </g>
     <g id="text_11">
      <!-- 4.0 -->
      <g transform="translate(20.9 26.117344)scale(0.1 -0.1)">
       <use xlink:href="#DejaVuSans-52"/>
       <use x="63.623047" xlink:href="#DejaVuSans-46"/>
       <use x="95.410156" xlink:href="#DejaVuSans-48"/>
      </g>
     </g>
    </g>
    <g id="text_12">
     <!-- Value $y_i$ -->
     <defs>
      <path d="M 28.609375 0 
L 0.78125 72.90625 
L 11.078125 72.90625 
L 34.1875 11.53125 
L 57.328125 72.90625 
L 67.578125 72.90625 
L 39.796875 0 
z
" id="DejaVuSans-86"/>
      <path d="M 8.5 21.578125 
L 8.5 54.6875 
L 17.484375 54.6875 
L 17.484375 21.921875 
Q 17.484375 14.15625 20.5 10.265625 
Q 23.53125 6.390625 29.59375 6.390625 
Q 36.859375 6.390625 41.078125 11.03125 
Q 45.3125 15.671875 45.3125 23.6875 
L 45.3125 54.6875 
L 54.296875 54.6875 
L 54.296875 0 
L 45.3125 0 
L 45.3125 8.40625 
Q 42.046875 3.421875 37.71875 1 
Q 33.40625 -1.421875 27.6875 -1.421875 
Q 18.265625 -1.421875 13.375 4.4375 
Q 8.5 10.296875 8.5 21.578125 
z
M 31.109375 56 
z
" id="DejaVuSans-117"/>
      <path d="M 24.8125 -5.078125 
Q 18.5625 -15.578125 14.625 -18.1875 
Q 10.6875 -20.796875 4.59375 -20.796875 
L -2.484375 -20.796875 
L -0.984375 -13.28125 
L 4.203125 -13.28125 
Q 7.953125 -13.28125 10.59375 -11.234375 
Q 13.234375 -9.1875 16.5 -3.21875 
L 19.28125 2 
L 7.171875 54.6875 
L 16.703125 54.6875 
L 25.78125 12.796875 
L 50.875 54.6875 
L 60.296875 54.6875 
z
" id="DejaVuSans-Oblique-121"/>
     </defs>
     <g transform="translate(14.8 123.658125)rotate(-90)scale(0.1 -0.1)">
      <use transform="translate(0 0.015625)" xlink:href="#DejaVuSans-86"/>
      <use transform="translate(68.408203 0.015625)" xlink:href="#DejaVuSans-97"/>
      <use transform="translate(129.6875 0.015625)" xlink:href="#DejaVuSans-108"/>
      <use transform="translate(157.470703 0.015625)" xlink:href="#DejaVuSans-117"/>
      <use transform="translate(220.849609 0.015625)" xlink:href="#DejaVuSans-101"/>
      <use transform="translate(282.373047 0.015625)" xlink:href="#DejaVuSans-32"/>
      <use transform="translate(314.160156 0.015625)" xlink:href="#DejaVuSans-Oblique-121"/>
      <use transform="translate(373.339844 -16.390625)scale(0.7)" xlink:href="#DejaVuSans-Oblique-105"/>
     </g>
    </g>
   </g>
   <g id="line2d_21">
    <defs>
     <path d="M 0 3 
C 0.795609 3 1.55874 2.683901 2.12132 2.12132 
C 2.683901 1.55874 3 0.795609 3 0 
C 3 -0.795609 2.683901 -1.55874 2.12132 -2.12132 
C 1.55874 -2.683901 0.795609 -3 0 -3 
C -0.795609 -3 -1.55874 -2.683901 -2.12132 -2.12132 
C -2.683901 -1.55874 -3 -0.795609 -3 0 
C -3 0.795609 -2.683901 1.55874 -2.12132 2.12132 
C -1.55874 2.683901 -0.795609 3 0 3 
z
" id="m25eddba133" style="stroke:#1f77b4;"/>
    </defs>
    <g clip-path="url(#pe1be7fc6c9)">
     <use style="fill:#1f77b4;stroke:#1f77b4;" x="64.932501" xlink:href="#m25eddba133" y="94.476576"/>
     <use style="fill:#1f77b4;stroke:#1f77b4;" x="87.29163" xlink:href="#m25eddba133" y="54.194839"/>
     <use style="fill:#1f77b4;stroke:#1f77b4;" x="109.650758" xlink:href="#m25eddba133" y="92.981426"/>
     <use style="fill:#1f77b4;stroke:#1f77b4;" x="132.009887" xlink:href="#m25eddba133" y="84.240447"/>
     <use style="fill:#1f77b4;stroke:#1f77b4;" x="154.369015" xlink:href="#m25eddba133" y="77.183206"/>
     <use style="fill:#1f77b4;stroke:#1f77b4;" x="176.728144" xlink:href="#m25eddba133" y="33.804054"/>
     <use style="fill:#1f77b4;stroke:#1f77b4;" x="199.087272" xlink:href="#m25eddba133" y="49.545129"/>
     <use style="fill:#1f77b4;stroke:#1f77b4;" x="221.446401" xlink:href="#m25eddba133" y="59.731758"/>
     <use style="fill:#1f77b4;stroke:#1f77b4;" x="243.805529" xlink:href="#m25eddba133" y="101.492338"/>
     <use style="fill:#1f77b4;stroke:#1f77b4;" x="266.164658" xlink:href="#m25eddba133" y="44.028289"/>
    </g>
   </g>
   <g id="line2d_22">
    <path clip-path="url(#pe1be7fc6c9)" d="M 64.932501 150.707806 
L 87.29163 150.707806 
L 109.650758 150.707806 
L 132.009887 150.707806 
L 154.369015 150.707806 
L 176.728144 150.707806 
L 199.087272 150.707806 
L 221.446401 150.707806 
L 243.805529 150.707806 
L 266.164658 150.707806 
" style="fill:none;stroke:#ff7f0e;stroke-linecap:square;stroke-width:2;"/>
   </g>
   <g id="line2d_23">
    <path clip-path="url(#pe1be7fc6c9)" d="M 64.932501 150.707806 
L 64.932501 94.476576 
" style="fill:none;stroke:#2ca02c;stroke-dasharray:3.7,1.6;stroke-dashoffset:0;stroke-opacity:0.75;"/>
   </g>
   <g id="line2d_24">
    <path clip-path="url(#pe1be7fc6c9)" d="M 87.29163 150.707806 
L 87.29163 54.194839 
" style="fill:none;stroke:#2ca02c;stroke-dasharray:3.7,1.6;stroke-dashoffset:0;stroke-opacity:0.75;"/>
   </g>
   <g id="line2d_25">
    <path clip-path="url(#pe1be7fc6c9)" d="M 109.650758 150.707806 
L 109.650758 92.981426 
" style="fill:none;stroke:#2ca02c;stroke-dasharray:3.7,1.6;stroke-dashoffset:0;stroke-opacity:0.75;"/>
   </g>
   <g id="line2d_26">
    <path clip-path="url(#pe1be7fc6c9)" d="M 132.009887 150.707806 
L 132.009887 84.240447 
" style="fill:none;stroke:#2ca02c;stroke-dasharray:3.7,1.6;stroke-dashoffset:0;stroke-opacity:0.75;"/>
   </g>
   <g id="line2d_27">
    <path clip-path="url(#pe1be7fc6c9)" d="M 154.369015 150.707806 
L 154.369015 77.183206 
" style="fill:none;stroke:#2ca02c;stroke-dasharray:3.7,1.6;stroke-dashoffset:0;stroke-opacity:0.75;"/>
   </g>
   <g id="line2d_28">
    <path clip-path="url(#pe1be7fc6c9)" d="M 176.728144 150.707806 
L 176.728144 33.804054 
" style="fill:none;stroke:#2ca02c;stroke-dasharray:3.7,1.6;stroke-dashoffset:0;stroke-opacity:0.75;"/>
   </g>
   <g id="line2d_29">
    <path clip-path="url(#pe1be7fc6c9)" d="M 199.087272 150.707806 
L 199.087272 49.545129 
" style="fill:none;stroke:#2ca02c;stroke-dasharray:3.7,1.6;stroke-dashoffset:0;stroke-opacity:0.75;"/>
   </g>
   <g id="line2d_30">
    <path clip-path="url(#pe1be7fc6c9)" d="M 221.446401 150.707806 
L 221.446401 59.731758 
" style="fill:none;stroke:#2ca02c;stroke-dasharray:3.7,1.6;stroke-dashoffset:0;stroke-opacity:0.75;"/>
   </g>
   <g id="line2d_31">
    <path clip-path="url(#pe1be7fc6c9)" d="M 243.805529 150.707806 
L 243.805529 101.492338 
" style="fill:none;stroke:#2ca02c;stroke-dasharray:3.7,1.6;stroke-dashoffset:0;stroke-opacity:0.75;"/>
   </g>
   <g id="line2d_32">
    <path clip-path="url(#pe1be7fc6c9)" d="M 266.164658 150.707806 
L 266.164658 44.028289 
" style="fill:none;stroke:#2ca02c;stroke-dasharray:3.7,1.6;stroke-dashoffset:0;stroke-opacity:0.75;"/>
   </g>
   <g id="line2d_33">
    <path clip-path="url(#pe1be7fc6c9)" d="M 54.870894 69.167806 
L 276.226265 69.167806 
" style="fill:none;stroke:#d62728;stroke-dasharray:1.5,2.475;stroke-dashoffset:0;stroke-width:1.5;"/>
   </g>
   <g id="patch_3">
    <path d="M 43.803125 185.398125 
L 43.803125 22.318125 
" style="fill:none;stroke:#000000;stroke-linecap:square;stroke-linejoin:miter;stroke-width:0.8;"/>
   </g>
   <g id="patch_4">
    <path d="M 287.294034 185.398125 
L 287.294034 22.318125 
" style="fill:none;stroke:#000000;stroke-linecap:square;stroke-linejoin:miter;stroke-width:0.8;"/>
   </g>
   <g id="patch_5">
    <path d="M 43.803125 185.398125 
L 287.294034 185.398125 
" style="fill:none;stroke:#000000;stroke-linecap:square;stroke-linejoin:miter;stroke-width:0.8;"/>
   </g>
   <g id="patch_6">
    <path d="M 43.803125 22.318125 
L 287.294034 22.318125 
" style="fill:none;stroke:#000000;stroke-linecap:square;stroke-linejoin:miter;stroke-width:0.8;"/>
   </g>
   <g id="text_13">
    <!-- ▲ -->
    <defs>
     <path d="M 0.296875 -12.3125 
L 38.421875 64.265625 
L 76.609375 -12.3125 
z
" id="DejaVuSans-9650"/>
    </defs>
    <g style="fill:#2ca02c;opacity:0.6;" transform="translate(60.237084 106.707576)scale(0.12 -0.12)">
     <use xlink:href="#DejaVuSans-9650"/>
    </g>
   </g>
   <g id="text_14">
    <!-- ▲ -->
    <g style="fill:#2ca02c;opacity:0.6;" transform="translate(82.596213 66.425839)scale(0.12 -0.12)">
     <use xlink:href="#DejaVuSans-9650"/>
    </g>
   </g>
   <g id="text_15">
    <!-- ▲ -->
    <g style="fill:#2ca02c;opacity:0.6;" transform="translate(104.955341 105.212426)scale(0.12 -0.12)">
     <use xlink:href="#DejaVuSans-9650"/>
    </g>
   </g>
   <g id="text_16">
    <!-- ▲ -->
    <g style="fill:#2ca02c;opacity:0.6;" transform="translate(127.31447 96.471447)scale(0.12 -0.12)">
     <use xlink:href="#DejaVuSans-9650"/>
    </g>
   </g>
   <g id="text_17">
    <!-- ▲ -->
    <g style="fill:#2ca02c;opacity:0.6;" transform="translate(149.673598 89.414206)scale(0.12 -0.12)">
     <use xlink:href="#DejaVuSans-9650"/>
    </g>
   </g>
   <g id="text_18">
    <!-- ▲ -->
    <g style="fill:#2ca02c;opacity:0.6;" transform="translate(172.032727 46.035054)scale(0.12 -0.12)">
     <use xlink:href="#DejaVuSans-9650"/>
    </g>
   </g>
   <g id="text_19">
    <!-- ▲ -->
    <g style="fill:#2ca02c;opacity:0.6;" transform="translate(194.391855 61.776129)scale(0.12 -0.12)">
     <use xlink:href="#DejaVuSans-9650"/>
    </g>
   </g>
   <g id="text_20">
    <!-- ▲ -->
    <g style="fill:#2ca02c;opacity:0.6;" transform="translate(216.750984 71.962758)scale(0.12 -0.12)">
     <use xlink:href="#DejaVuSans-9650"/>
    </g>
   </g>
   <g id="text_21">
    <!-- ▲ -->
    <g style="fill:#2ca02c;opacity:0.6;" transform="translate(239.110112 113.723338)scale(0.12 -0.12)">
     <use xlink:href="#DejaVuSans-9650"/>
    </g>
   </g>
   <g id="text_22">
    <!-- ▲ -->
    <g style="fill:#2ca02c;opacity:0.6;" transform="translate(261.469241 56.259289)scale(0.12 -0.12)">
     <use xlink:href="#DejaVuSans-9650"/>
    </g>
   </g>
   <g id="text_23">
    <!-- With poor initialization -->
    <defs>
     <path d="M 3.328125 72.90625 
L 13.28125 72.90625 
L 28.609375 11.28125 
L 43.890625 72.90625 
L 54.984375 72.90625 
L 70.3125 11.28125 
L 85.59375 72.90625 
L 95.609375 72.90625 
L 77.296875 0 
L 64.890625 0 
L 49.515625 63.28125 
L 33.984375 0 
L 21.578125 0 
z
" id="DejaVuSans-87"/>
     <path d="M 18.3125 70.21875 
L 18.3125 54.6875 
L 36.8125 54.6875 
L 36.8125 47.703125 
L 18.3125 47.703125 
L 18.3125 18.015625 
Q 18.3125 11.328125 20.140625 9.421875 
Q 21.96875 7.515625 27.59375 7.515625 
L 36.8125 7.515625 
L 36.8125 0 
L 27.59375 0 
Q 17.1875 0 13.234375 3.875 
Q 9.28125 7.765625 9.28125 18.015625 
L 9.28125 47.703125 
L 2.6875 47.703125 
L 2.6875 54.6875 
L 9.28125 54.6875 
L 9.28125 70.21875 
z
" id="DejaVuSans-116"/>
     <path d="M 54.890625 33.015625 
L 54.890625 0 
L 45.90625 0 
L 45.90625 32.71875 
Q 45.90625 40.484375 42.875 44.328125 
Q 39.84375 48.1875 33.796875 48.1875 
Q 26.515625 48.1875 22.3125 43.546875 
Q 18.109375 38.921875 18.109375 30.90625 
L 18.109375 0 
L 9.078125 0 
L 9.078125 75.984375 
L 18.109375 75.984375 
L 18.109375 46.1875 
Q 21.34375 51.125 25.703125 53.5625 
Q 30.078125 56 35.796875 56 
Q 45.21875 56 50.046875 50.171875 
Q 54.890625 44.34375 54.890625 33.015625 
z
" id="DejaVuSans-104"/>
     <path d="M 30.609375 48.390625 
Q 23.390625 48.390625 19.1875 42.75 
Q 14.984375 37.109375 14.984375 27.296875 
Q 14.984375 17.484375 19.15625 11.84375 
Q 23.34375 6.203125 30.609375 6.203125 
Q 37.796875 6.203125 41.984375 11.859375 
Q 46.1875 17.53125 46.1875 27.296875 
Q 46.1875 37.015625 41.984375 42.703125 
Q 37.796875 48.390625 30.609375 48.390625 
z
M 30.609375 56 
Q 42.328125 56 49.015625 48.375 
Q 55.71875 40.765625 55.71875 27.296875 
Q 55.71875 13.875 49.015625 6.21875 
Q 42.328125 -1.421875 30.609375 -1.421875 
Q 18.84375 -1.421875 12.171875 6.21875 
Q 5.515625 13.875 5.515625 27.296875 
Q 5.515625 40.765625 12.171875 48.375 
Q 18.84375 56 30.609375 56 
z
" id="DejaVuSans-111"/>
     <path d="M 41.109375 46.296875 
Q 39.59375 47.171875 37.8125 47.578125 
Q 36.03125 48 33.890625 48 
Q 26.265625 48 22.1875 43.046875 
Q 18.109375 38.09375 18.109375 28.8125 
L 18.109375 0 
L 9.078125 0 
L 9.078125 54.6875 
L 18.109375 54.6875 
L 18.109375 46.1875 
Q 20.953125 51.171875 25.484375 53.578125 
Q 30.03125 56 36.53125 56 
Q 37.453125 56 38.578125 55.875 
Q 39.703125 55.765625 41.0625 55.515625 
z
" id="DejaVuSans-114"/>
     <path d="M 5.515625 54.6875 
L 48.1875 54.6875 
L 48.1875 46.484375 
L 14.40625 7.171875 
L 48.1875 7.171875 
L 48.1875 0 
L 4.296875 0 
L 4.296875 8.203125 
L 38.09375 47.515625 
L 5.515625 47.515625 
z
" id="DejaVuSans-122"/>
    </defs>
    <g transform="translate(97.87983 16.318125)scale(0.12 -0.12)">
     <use xlink:href="#DejaVuSans-87"/>
     <use x="98.845703" xlink:href="#DejaVuSans-105"/>
     <use x="126.628906" xlink:href="#DejaVuSans-116"/>
     <use x="165.837891" xlink:href="#DejaVuSans-104"/>
     <use x="229.216797" xlink:href="#DejaVuSans-32"/>
     <use x="261.003906" xlink:href="#DejaVuSans-112"/>
     <use x="324.480469" xlink:href="#DejaVuSans-111"/>
     <use x="385.662109" xlink:href="#DejaVuSans-111"/>
     <use x="446.84375" xlink:href="#DejaVuSans-114"/>
     <use x="487.957031" xlink:href="#DejaVuSans-32"/>
     <use x="519.744141" xlink:href="#DejaVuSans-105"/>
     <use x="547.527344" xlink:href="#DejaVuSans-110"/>
     <use x="610.90625" xlink:href="#DejaVuSans-105"/>
     <use x="638.689453" xlink:href="#DejaVuSans-116"/>
     <use x="677.898438" xlink:href="#DejaVuSans-105"/>
     <use x="705.681641" xlink:href="#DejaVuSans-97"/>
     <use x="766.960938" xlink:href="#DejaVuSans-108"/>
     <use x="794.744141" xlink:href="#DejaVuSans-105"/>
     <use x="822.527344" xlink:href="#DejaVuSans-122"/>
     <use x="875.017578" xlink:href="#DejaVuSans-97"/>
     <use x="936.296875" xlink:href="#DejaVuSans-116"/>
     <use x="975.505859" xlink:href="#DejaVuSans-105"/>
     <use x="1003.289062" xlink:href="#DejaVuSans-111"/>
     <use x="1064.470703" xlink:href="#DejaVuSans-110"/>
    </g>
   </g>
  </g>
  <g id="axes_2">
   <g id="patch_7">
    <path d="M 335.992216 185.398125 
L 579.483125 185.398125 
L 579.483125 22.318125 
L 335.992216 22.318125 
z
" style="fill:#ffffff;"/>
   </g>
   <g id="matplotlib.axis_3">
    <g id="xtick_6">
     <g id="line2d_34">
      <path clip-path="url(#paf6de7d7d8)" d="M 357.121592 185.398125 
L 357.121592 22.318125 
" style="fill:none;stroke:#b0b0b0;stroke-linecap:square;stroke-opacity:0.2;stroke-width:0.8;"/>
     </g>
     <g id="line2d_35">
      <g>
       <use style="stroke:#000000;stroke-width:0.8;" x="357.121592" xlink:href="#m11c6caeb6a" y="185.398125"/>
      </g>
     </g>
     <g id="text_24">
      <!-- 0 -->
      <g transform="translate(353.940342 199.996562)scale(0.1 -0.1)">
       <use xlink:href="#DejaVuSans-48"/>
      </g>
     </g>
    </g>
    <g id="xtick_7">
     <g id="line2d_36">
      <path clip-path="url(#paf6de7d7d8)" d="M 401.839849 185.398125 
L 401.839849 22.318125 
" style="fill:none;stroke:#b0b0b0;stroke-linecap:square;stroke-opacity:0.2;stroke-width:0.8;"/>
     </g>
     <g id="line2d_37">
      <g>
       <use style="stroke:#000000;stroke-width:0.8;" x="401.839849" xlink:href="#m11c6caeb6a" y="185.398125"/>
      </g>
     </g>
     <g id="text_25">
      <!-- 2 -->
      <g transform="translate(398.658599 199.996562)scale(0.1 -0.1)">
       <use xlink:href="#DejaVuSans-50"/>
      </g>
     </g>
    </g>
    <g id="xtick_8">
     <g id="line2d_38">
      <path clip-path="url(#paf6de7d7d8)" d="M 446.558106 185.398125 
L 446.558106 22.318125 
" style="fill:none;stroke:#b0b0b0;stroke-linecap:square;stroke-opacity:0.2;stroke-width:0.8;"/>
     </g>
     <g id="line2d_39">
      <g>
       <use style="stroke:#000000;stroke-width:0.8;" x="446.558106" xlink:href="#m11c6caeb6a" y="185.398125"/>
      </g>
     </g>
     <g id="text_26">
      <!-- 4 -->
      <g transform="translate(443.376856 199.996562)scale(0.1 -0.1)">
       <use xlink:href="#DejaVuSans-52"/>
      </g>
     </g>
    </g>
    <g id="xtick_9">
     <g id="line2d_40">
      <path clip-path="url(#paf6de7d7d8)" d="M 491.276363 185.398125 
L 491.276363 22.318125 
" style="fill:none;stroke:#b0b0b0;stroke-linecap:square;stroke-opacity:0.2;stroke-width:0.8;"/>
     </g>
     <g id="line2d_41">
      <g>
       <use style="stroke:#000000;stroke-width:0.8;" x="491.276363" xlink:href="#m11c6caeb6a" y="185.398125"/>
      </g>
     </g>
     <g id="text_27">
      <!-- 6 -->
      <g transform="translate(488.095113 199.996562)scale(0.1 -0.1)">
       <use xlink:href="#DejaVuSans-54"/>
      </g>
     </g>
    </g>
    <g id="xtick_10">
     <g id="line2d_42">
      <path clip-path="url(#paf6de7d7d8)" d="M 535.99462 185.398125 
L 535.99462 22.318125 
" style="fill:none;stroke:#b0b0b0;stroke-linecap:square;stroke-opacity:0.2;stroke-width:0.8;"/>
     </g>
     <g id="line2d_43">
      <g>
       <use style="stroke:#000000;stroke-width:0.8;" x="535.99462" xlink:href="#m11c6caeb6a" y="185.398125"/>
      </g>
     </g>
     <g id="text_28">
      <!-- 8 -->
      <g transform="translate(532.81337 199.996562)scale(0.1 -0.1)">
       <use xlink:href="#DejaVuSans-56"/>
      </g>
     </g>
    </g>
    <g id="text_29">
     <!-- Example index $i$ -->
     <g transform="translate(417.68767 213.67625)scale(0.1 -0.1)">
      <use transform="translate(0 0.015625)" xlink:href="#DejaVuSans-69"/>
      <use transform="translate(63.183594 0.015625)" xlink:href="#DejaVuSans-120"/>
      <use transform="translate(122.363281 0.015625)" xlink:href="#DejaVuSans-97"/>
      <use transform="translate(183.642578 0.015625)" xlink:href="#DejaVuSans-109"/>
      <use transform="translate(281.054688 0.015625)" xlink:href="#DejaVuSans-112"/>
      <use transform="translate(344.53125 0.015625)" xlink:href="#DejaVuSans-108"/>
      <use transform="translate(372.314453 0.015625)" xlink:href="#DejaVuSans-101"/>
      <use transform="translate(433.837891 0.015625)" xlink:href="#DejaVuSans-32"/>
      <use transform="translate(465.625 0.015625)" xlink:href="#DejaVuSans-105"/>
      <use transform="translate(493.408203 0.015625)" xlink:href="#DejaVuSans-110"/>
      <use transform="translate(556.787109 0.015625)" xlink:href="#DejaVuSans-100"/>
      <use transform="translate(620.263672 0.015625)" xlink:href="#DejaVuSans-101"/>
      <use transform="translate(681.787109 0.015625)" xlink:href="#DejaVuSans-120"/>
      <use transform="translate(740.966797 0.015625)" xlink:href="#DejaVuSans-32"/>
      <use transform="translate(772.753906 0.015625)" xlink:href="#DejaVuSans-Oblique-105"/>
     </g>
    </g>
   </g>
   <g id="matplotlib.axis_4">
    <g id="ytick_6">
     <g id="line2d_44">
      <path clip-path="url(#paf6de7d7d8)" d="M 335.992216 185.398125 
L 579.483125 185.398125 
" style="fill:none;stroke:#b0b0b0;stroke-linecap:square;stroke-opacity:0.2;stroke-width:0.8;"/>
     </g>
     <g id="line2d_45">
      <g>
       <use style="stroke:#000000;stroke-width:0.8;" x="335.992216" xlink:href="#md1902f25ed" y="185.398125"/>
      </g>
     </g>
     <g id="text_30">
      <!-- 2.0 -->
      <g transform="translate(313.089091 189.197344)scale(0.1 -0.1)">
       <use xlink:href="#DejaVuSans-50"/>
       <use x="63.623047" xlink:href="#DejaVuSans-46"/>
       <use x="95.410156" xlink:href="#DejaVuSans-48"/>
      </g>
     </g>
    </g>
    <g id="ytick_7">
     <g id="line2d_46">
      <path clip-path="url(#paf6de7d7d8)" d="M 335.992216 144.628125 
L 579.483125 144.628125 
" style="fill:none;stroke:#b0b0b0;stroke-linecap:square;stroke-opacity:0.2;stroke-width:0.8;"/>
     </g>
     <g id="line2d_47">
      <g>
       <use style="stroke:#000000;stroke-width:0.8;" x="335.992216" xlink:href="#md1902f25ed" y="144.628125"/>
      </g>
     </g>
     <g id="text_31">
      <!-- 2.5 -->
      <g transform="translate(313.089091 148.427344)scale(0.1 -0.1)">
       <use xlink:href="#DejaVuSans-50"/>
       <use x="63.623047" xlink:href="#DejaVuSans-46"/>
       <use x="95.410156" xlink:href="#DejaVuSans-53"/>
      </g>
     </g>
    </g>
    <g id="ytick_8">
     <g id="line2d_48">
      <path clip-path="url(#paf6de7d7d8)" d="M 335.992216 103.858125 
L 579.483125 103.858125 
" style="fill:none;stroke:#b0b0b0;stroke-linecap:square;stroke-opacity:0.2;stroke-width:0.8;"/>
     </g>
     <g id="line2d_49">
      <g>
       <use style="stroke:#000000;stroke-width:0.8;" x="335.992216" xlink:href="#md1902f25ed" y="103.858125"/>
      </g>
     </g>
     <g id="text_32">
      <!-- 3.0 -->
      <g transform="translate(313.089091 107.657344)scale(0.1 -0.1)">
       <use xlink:href="#DejaVuSans-51"/>
       <use x="63.623047" xlink:href="#DejaVuSans-46"/>
       <use x="95.410156" xlink:href="#DejaVuSans-48"/>
      </g>
     </g>
    </g>
    <g id="ytick_9">
     <g id="line2d_50">
      <path clip-path="url(#paf6de7d7d8)" d="M 335.992216 63.088125 
L 579.483125 63.088125 
" style="fill:none;stroke:#b0b0b0;stroke-linecap:square;stroke-opacity:0.2;stroke-width:0.8;"/>
     </g>
     <g id="line2d_51">
      <g>
       <use style="stroke:#000000;stroke-width:0.8;" x="335.992216" xlink:href="#md1902f25ed" y="63.088125"/>
      </g>
     </g>
     <g id="text_33">
      <!-- 3.5 -->
      <g transform="translate(313.089091 66.887344)scale(0.1 -0.1)">
       <use xlink:href="#DejaVuSans-51"/>
       <use x="63.623047" xlink:href="#DejaVuSans-46"/>
       <use x="95.410156" xlink:href="#DejaVuSans-53"/>
      </g>
     </g>
    </g>
    <g id="ytick_10">
     <g id="line2d_52">
      <path clip-path="url(#paf6de7d7d8)" d="M 335.992216 22.318125 
L 579.483125 22.318125 
" style="fill:none;stroke:#b0b0b0;stroke-linecap:square;stroke-opacity:0.2;stroke-width:0.8;"/>
     </g>
     <g id="line2d_53">
      <g>
       <use style="stroke:#000000;stroke-width:0.8;" x="335.992216" xlink:href="#md1902f25ed" y="22.318125"/>
      </g>
     </g>
     <g id="text_34">
      <!-- 4.0 -->
      <g transform="translate(313.089091 26.117344)scale(0.1 -0.1)">
       <use xlink:href="#DejaVuSans-52"/>
       <use x="63.623047" xlink:href="#DejaVuSans-46"/>
       <use x="95.410156" xlink:href="#DejaVuSans-48"/>
      </g>
     </g>
    </g>
    <g id="text_35">
     <!-- Value $y_i$ -->
     <g transform="translate(306.989091 123.658125)rotate(-90)scale(0.1 -0.1)">
      <use transform="translate(0 0.015625)" xlink:href="#DejaVuSans-86"/>
      <use transform="translate(68.408203 0.015625)" xlink:href="#DejaVuSans-97"/>
      <use transform="translate(129.6875 0.015625)" xlink:href="#DejaVuSans-108"/>
      <use transform="translate(157.470703 0.015625)" xlink:href="#DejaVuSans-117"/>
      <use transform="translate(220.849609 0.015625)" xlink:href="#DejaVuSans-101"/>
      <use transform="translate(282.373047 0.015625)" xlink:href="#DejaVuSans-32"/>
      <use transform="translate(314.160156 0.015625)" xlink:href="#DejaVuSans-Oblique-121"/>
      <use transform="translate(373.339844 -16.390625)scale(0.7)" xlink:href="#DejaVuSans-Oblique-105"/>
     </g>
    </g>
   </g>
   <g id="line2d_54">
    <g clip-path="url(#paf6de7d7d8)">
     <use style="fill:#1f77b4;stroke:#1f77b4;" x="357.121592" xlink:href="#m25eddba133" y="94.476576"/>
     <use style="fill:#1f77b4;stroke:#1f77b4;" x="379.480721" xlink:href="#m25eddba133" y="54.194839"/>
     <use style="fill:#1f77b4;stroke:#1f77b4;" x="401.839849" xlink:href="#m25eddba133" y="92.981426"/>
     <use style="fill:#1f77b4;stroke:#1f77b4;" x="424.198978" xlink:href="#m25eddba133" y="84.240447"/>
     <use style="fill:#1f77b4;stroke:#1f77b4;" x="446.558106" xlink:href="#m25eddba133" y="77.183206"/>
     <use style="fill:#1f77b4;stroke:#1f77b4;" x="468.917235" xlink:href="#m25eddba133" y="33.804054"/>
     <use style="fill:#1f77b4;stroke:#1f77b4;" x="491.276363" xlink:href="#m25eddba133" y="49.545129"/>
     <use style="fill:#1f77b4;stroke:#1f77b4;" x="513.635492" xlink:href="#m25eddba133" y="59.731758"/>
     <use style="fill:#1f77b4;stroke:#1f77b4;" x="535.99462" xlink:href="#m25eddba133" y="101.492338"/>
     <use style="fill:#1f77b4;stroke:#1f77b4;" x="558.353749" xlink:href="#m25eddba133" y="44.028289"/>
    </g>
   </g>
   <g id="line2d_55">
    <path clip-path="url(#paf6de7d7d8)" d="M 357.121592 77.321806 
L 379.480721 77.321806 
L 401.839849 77.321806 
L 424.198978 77.321806 
L 446.558106 77.321806 
L 468.917235 77.321806 
L 491.276363 77.321806 
L 513.635492 77.321806 
L 535.99462 77.321806 
L 558.353749 77.321806 
" style="fill:none;stroke:#ff7f0e;stroke-linecap:square;stroke-width:2;"/>
   </g>
   <g id="line2d_56">
    <path clip-path="url(#paf6de7d7d8)" d="M 357.121592 77.321806 
L 357.121592 94.476576 
" style="fill:none;stroke:#2ca02c;stroke-dasharray:3.7,1.6;stroke-dashoffset:0;stroke-opacity:0.75;"/>
   </g>
   <g id="line2d_57">
    <path clip-path="url(#paf6de7d7d8)" d="M 379.480721 77.321806 
L 379.480721 54.194839 
" style="fill:none;stroke:#2ca02c;stroke-dasharray:3.7,1.6;stroke-dashoffset:0;stroke-opacity:0.75;"/>
   </g>
   <g id="line2d_58">
    <path clip-path="url(#paf6de7d7d8)" d="M 401.839849 77.321806 
L 401.839849 92.981426 
" style="fill:none;stroke:#2ca02c;stroke-dasharray:3.7,1.6;stroke-dashoffset:0;stroke-opacity:0.75;"/>
   </g>
   <g id="line2d_59">
    <path clip-path="url(#paf6de7d7d8)" d="M 424.198978 77.321806 
L 424.198978 84.240447 
" style="fill:none;stroke:#2ca02c;stroke-dasharray:3.7,1.6;stroke-dashoffset:0;stroke-opacity:0.75;"/>
   </g>
   <g id="line2d_60">
    <path clip-path="url(#paf6de7d7d8)" d="M 446.558106 77.321806 
L 446.558106 77.183206 
" style="fill:none;stroke:#2ca02c;stroke-dasharray:3.7,1.6;stroke-dashoffset:0;stroke-opacity:0.75;"/>
   </g>
   <g id="line2d_61">
    <path clip-path="url(#paf6de7d7d8)" d="M 468.917235 77.321806 
L 468.917235 33.804054 
" style="fill:none;stroke:#2ca02c;stroke-dasharray:3.7,1.6;stroke-dashoffset:0;stroke-opacity:0.75;"/>
   </g>
   <g id="line2d_62">
    <path clip-path="url(#paf6de7d7d8)" d="M 491.276363 77.321806 
L 491.276363 49.545129 
" style="fill:none;stroke:#2ca02c;stroke-dasharray:3.7,1.6;stroke-dashoffset:0;stroke-opacity:0.75;"/>
   </g>
   <g id="line2d_63">
    <path clip-path="url(#paf6de7d7d8)" d="M 513.635492 77.321806 
L 513.635492 59.731758 
" style="fill:none;stroke:#2ca02c;stroke-dasharray:3.7,1.6;stroke-dashoffset:0;stroke-opacity:0.75;"/>
   </g>
   <g id="line2d_64">
    <path clip-path="url(#paf6de7d7d8)" d="M 535.99462 77.321806 
L 535.99462 101.492338 
" style="fill:none;stroke:#2ca02c;stroke-dasharray:3.7,1.6;stroke-dashoffset:0;stroke-opacity:0.75;"/>
   </g>
   <g id="line2d_65">
    <path clip-path="url(#paf6de7d7d8)" d="M 558.353749 77.321806 
L 558.353749 44.028289 
" style="fill:none;stroke:#2ca02c;stroke-dasharray:3.7,1.6;stroke-dashoffset:0;stroke-opacity:0.75;"/>
   </g>
   <g id="line2d_66">
    <path clip-path="url(#paf6de7d7d8)" d="M 347.059985 69.167806 
L 568.415356 69.167806 
" style="fill:none;stroke:#d62728;stroke-dasharray:1.5,2.475;stroke-dashoffset:0;stroke-width:1.5;"/>
   </g>
   <g id="patch_8">
    <path d="M 335.992216 185.398125 
L 335.992216 22.318125 
" style="fill:none;stroke:#000000;stroke-linecap:square;stroke-linejoin:miter;stroke-width:0.8;"/>
   </g>
   <g id="patch_9">
    <path d="M 579.483125 185.398125 
L 579.483125 22.318125 
" style="fill:none;stroke:#000000;stroke-linecap:square;stroke-linejoin:miter;stroke-width:0.8;"/>
   </g>
   <g id="patch_10">
    <path d="M 335.992216 185.398125 
L 579.483125 185.398125 
" style="fill:none;stroke:#000000;stroke-linecap:square;stroke-linejoin:miter;stroke-width:0.8;"/>
   </g>
   <g id="patch_11">
    <path d="M 335.992216 22.318125 
L 579.483125 22.318125 
" style="fill:none;stroke:#000000;stroke-linecap:square;stroke-linejoin:miter;stroke-width:0.8;"/>
   </g>
   <g id="text_36">
    <!-- ▼ -->
    <defs>
     <path d="M 0.296875 64.265625 
L 76.609375 64.265625 
L 38.421875 -12.3125 
z
" id="DejaVuSans-9660"/>
    </defs>
    <g style="fill:#2ca02c;opacity:0.6;" transform="translate(352.426175 90.399576)scale(0.12 -0.12)">
     <use xlink:href="#DejaVuSans-9660"/>
    </g>
   </g>
   <g id="text_37">
    <!-- ▲ -->
    <g style="fill:#2ca02c;opacity:0.6;" transform="translate(374.785304 66.425839)scale(0.12 -0.12)">
     <use xlink:href="#DejaVuSans-9650"/>
    </g>
   </g>
   <g id="text_38">
    <!-- ▼ -->
    <g style="fill:#2ca02c;opacity:0.6;" transform="translate(397.144432 88.904426)scale(0.12 -0.12)">
     <use xlink:href="#DejaVuSans-9660"/>
    </g>
   </g>
   <g id="text_39">
    <!-- ▲ -->
    <g style="fill:#2ca02c;opacity:0.6;" transform="translate(464.221818 46.035054)scale(0.12 -0.12)">
     <use xlink:href="#DejaVuSans-9650"/>
    </g>
   </g>
   <g id="text_40">
    <!-- ▲ -->
    <g style="fill:#2ca02c;opacity:0.6;" transform="translate(486.580946 61.776129)scale(0.12 -0.12)">
     <use xlink:href="#DejaVuSans-9650"/>
    </g>
   </g>
   <g id="text_41">
    <!-- ▲ -->
    <g style="fill:#2ca02c;opacity:0.6;" transform="translate(508.940075 71.962758)scale(0.12 -0.12)">
     <use xlink:href="#DejaVuSans-9650"/>
    </g>
   </g>
   <g id="text_42">
    <!-- ▼ -->
    <g style="fill:#2ca02c;opacity:0.6;" transform="translate(531.299203 97.415338)scale(0.12 -0.12)">
     <use xlink:href="#DejaVuSans-9660"/>
    </g>
   </g>
   <g id="text_43">
    <!-- ▲ -->
    <g style="fill:#2ca02c;opacity:0.6;" transform="translate(553.658332 56.259289)scale(0.12 -0.12)">
     <use xlink:href="#DejaVuSans-9650"/>
    </g>
   </g>
   <g id="text_44">
    <!-- Near optimum -->
    <defs>
     <path d="M 9.8125 72.90625 
L 23.09375 72.90625 
L 55.421875 11.921875 
L 55.421875 72.90625 
L 64.984375 72.90625 
L 64.984375 0 
L 51.703125 0 
L 19.390625 60.984375 
L 19.390625 0 
L 9.8125 0 
z
" id="DejaVuSans-78"/>
    </defs>
    <g transform="translate(414.516108 16.318125)scale(0.12 -0.12)">
     <use xlink:href="#DejaVuSans-78"/>
     <use x="74.804688" xlink:href="#DejaVuSans-101"/>
     <use x="136.328125" xlink:href="#DejaVuSans-97"/>
     <use x="197.607422" xlink:href="#DejaVuSans-114"/>
     <use x="238.720703" xlink:href="#DejaVuSans-32"/>
     <use x="270.507812" xlink:href="#DejaVuSans-111"/>
     <use x="331.689453" xlink:href="#DejaVuSans-112"/>
     <use x="395.166016" xlink:href="#DejaVuSans-116"/>
     <use x="434.375" xlink:href="#DejaVuSans-105"/>
     <use x="462.158203" xlink:href="#DejaVuSans-109"/>
     <use x="559.570312" xlink:href="#DejaVuSans-117"/>
     <use x="622.949219" xlink:href="#DejaVuSans-109"/>
    </g>
   </g>
   <g id="legend_1">
    <g id="patch_12">
     <path d="M 342.992216 180.398125 
L 499.592216 180.398125 
Q 501.592216 180.398125 501.592216 178.398125 
L 501.592216 119.721562 
Q 501.592216 117.721562 499.592216 117.721562 
L 342.992216 117.721562 
Q 340.992216 117.721562 340.992216 119.721562 
L 340.992216 178.398125 
Q 340.992216 180.398125 342.992216 180.398125 
z
" style="fill:#ffffff;opacity:0.8;stroke:#cccccc;stroke-linejoin:miter;"/>
    </g>
    <g id="line2d_67"/>
    <g id="line2d_68">
     <g>
      <use style="fill:#1f77b4;stroke:#1f77b4;" x="354.992216" xlink:href="#m25eddba133" y="125.82"/>
     </g>
    </g>
    <g id="text_45">
     <!-- Data $y_i$ -->
     <defs>
      <path d="M 19.671875 64.796875 
L 19.671875 8.109375 
L 31.59375 8.109375 
Q 46.6875 8.109375 53.6875 14.9375 
Q 60.6875 21.78125 60.6875 36.53125 
Q 60.6875 51.171875 53.6875 57.984375 
Q 46.6875 64.796875 31.59375 64.796875 
z
M 9.8125 72.90625 
L 30.078125 72.90625 
Q 51.265625 72.90625 61.171875 64.09375 
Q 71.09375 55.28125 71.09375 36.53125 
Q 71.09375 17.671875 61.125 8.828125 
Q 51.171875 0 30.078125 0 
L 9.8125 0 
z
" id="DejaVuSans-68"/>
     </defs>
     <g transform="translate(372.992216 129.32)scale(0.1 -0.1)">
      <use transform="translate(0 0.09375)" xlink:href="#DejaVuSans-68"/>
      <use transform="translate(77.001953 0.09375)" xlink:href="#DejaVuSans-97"/>
      <use transform="translate(138.28125 0.09375)" xlink:href="#DejaVuSans-116"/>
      <use transform="translate(177.490234 0.09375)" xlink:href="#DejaVuSans-97"/>
      <use transform="translate(238.769531 0.09375)" xlink:href="#DejaVuSans-32"/>
      <use transform="translate(270.556641 0.09375)" xlink:href="#DejaVuSans-Oblique-121"/>
      <use transform="translate(329.736328 -16.3125)scale(0.7)" xlink:href="#DejaVuSans-Oblique-105"/>
     </g>
    </g>
    <g id="line2d_69">
     <path d="M 344.992216 140.518438 
L 364.992216 140.518438 
" style="fill:none;stroke:#ff7f0e;stroke-linecap:square;stroke-width:2;"/>
    </g>
    <g id="line2d_70"/>
    <g id="text_46">
     <!-- Model estimate $w$ -->
     <defs>
      <path d="M 9.8125 72.90625 
L 24.515625 72.90625 
L 43.109375 23.296875 
L 61.8125 72.90625 
L 76.515625 72.90625 
L 76.515625 0 
L 66.890625 0 
L 66.890625 64.015625 
L 48.09375 14.015625 
L 38.1875 14.015625 
L 19.390625 64.015625 
L 19.390625 0 
L 9.8125 0 
z
" id="DejaVuSans-77"/>
      <path d="M 44.28125 53.078125 
L 44.28125 44.578125 
Q 40.484375 46.53125 36.375 47.5 
Q 32.28125 48.484375 27.875 48.484375 
Q 21.1875 48.484375 17.84375 46.4375 
Q 14.5 44.390625 14.5 40.28125 
Q 14.5 37.15625 16.890625 35.375 
Q 19.28125 33.59375 26.515625 31.984375 
L 29.59375 31.296875 
Q 39.15625 29.25 43.1875 25.515625 
Q 47.21875 21.78125 47.21875 15.09375 
Q 47.21875 7.46875 41.1875 3.015625 
Q 35.15625 -1.421875 24.609375 -1.421875 
Q 20.21875 -1.421875 15.453125 -0.5625 
Q 10.6875 0.296875 5.421875 2 
L 5.421875 11.28125 
Q 10.40625 8.6875 15.234375 7.390625 
Q 20.0625 6.109375 24.8125 6.109375 
Q 31.15625 6.109375 34.5625 8.28125 
Q 37.984375 10.453125 37.984375 14.40625 
Q 37.984375 18.0625 35.515625 20.015625 
Q 33.0625 21.96875 24.703125 23.78125 
L 21.578125 24.515625 
Q 13.234375 26.265625 9.515625 29.90625 
Q 5.8125 33.546875 5.8125 39.890625 
Q 5.8125 47.609375 11.28125 51.796875 
Q 16.75 56 26.8125 56 
Q 31.78125 56 36.171875 55.265625 
Q 40.578125 54.546875 44.28125 53.078125 
z
" id="DejaVuSans-115"/>
      <path d="M 8.5 54.6875 
L 17.390625 54.6875 
L 19.671875 10.6875 
L 40.09375 54.6875 
L 50.484375 54.6875 
L 53.515625 10.6875 
L 72.90625 54.6875 
L 81.890625 54.6875 
L 56.890625 0 
L 46.390625 0 
L 43.703125 45.3125 
L 22.796875 0 
L 12.203125 0 
z
" id="DejaVuSans-Oblique-119"/>
     </defs>
     <g transform="translate(372.992216 144.018438)scale(0.1 -0.1)">
      <use transform="translate(0 0.015625)" xlink:href="#DejaVuSans-77"/>
      <use transform="translate(86.279297 0.015625)" xlink:href="#DejaVuSans-111"/>
      <use transform="translate(147.460938 0.015625)" xlink:href="#DejaVuSans-100"/>
      <use transform="translate(210.9375 0.015625)" xlink:href="#DejaVuSans-101"/>
      <use transform="translate(272.460938 0.015625)" xlink:href="#DejaVuSans-108"/>
      <use transform="translate(300.244141 0.015625)" xlink:href="#DejaVuSans-32"/>
      <use transform="translate(332.03125 0.015625)" xlink:href="#DejaVuSans-101"/>
      <use transform="translate(393.554688 0.015625)" xlink:href="#DejaVuSans-115"/>
      <use transform="translate(445.654297 0.015625)" xlink:href="#DejaVuSans-116"/>
      <use transform="translate(484.863281 0.015625)" xlink:href="#DejaVuSans-105"/>
      <use transform="translate(512.646484 0.015625)" xlink:href="#DejaVuSans-109"/>
      <use transform="translate(610.058594 0.015625)" xlink:href="#DejaVuSans-97"/>
      <use transform="translate(671.337891 0.015625)" xlink:href="#DejaVuSans-116"/>
      <use transform="translate(710.546875 0.015625)" xlink:href="#DejaVuSans-101"/>
      <use transform="translate(772.070312 0.015625)" xlink:href="#DejaVuSans-32"/>
      <use transform="translate(803.857422 0.015625)" xlink:href="#DejaVuSans-Oblique-119"/>
     </g>
    </g>
    <g id="line2d_71">
     <path d="M 344.992216 155.198125 
L 364.992216 155.198125 
" style="fill:none;stroke:#2ca02c;stroke-dasharray:3.7,1.6;stroke-dashoffset:0;stroke-opacity:0.75;"/>
    </g>
    <g id="line2d_72"/>
    <g id="text_47">
     <!-- Gradient $g_i$ for example $i$ -->
     <defs>
      <path d="M 59.515625 10.40625 
L 59.515625 29.984375 
L 43.40625 29.984375 
L 43.40625 38.09375 
L 69.28125 38.09375 
L 69.28125 6.78125 
Q 63.578125 2.734375 56.6875 0.65625 
Q 49.8125 -1.421875 42 -1.421875 
Q 24.90625 -1.421875 15.25 8.5625 
Q 5.609375 18.5625 5.609375 36.375 
Q 5.609375 54.25 15.25 64.234375 
Q 24.90625 74.21875 42 74.21875 
Q 49.125 74.21875 55.546875 72.453125 
Q 61.96875 70.703125 67.390625 67.28125 
L 67.390625 56.78125 
Q 61.921875 61.421875 55.765625 63.765625 
Q 49.609375 66.109375 42.828125 66.109375 
Q 29.4375 66.109375 22.71875 58.640625 
Q 16.015625 51.171875 16.015625 36.375 
Q 16.015625 21.625 22.71875 14.15625 
Q 29.4375 6.6875 42.828125 6.6875 
Q 48.046875 6.6875 52.140625 7.59375 
Q 56.25 8.5 59.515625 10.40625 
z
" id="DejaVuSans-71"/>
      <path d="M 59.625 54.6875 
L 50.296875 6.78125 
Q 47.609375 -7.125 40.015625 -13.953125 
Q 32.421875 -20.796875 19.578125 -20.796875 
Q 14.84375 -20.796875 10.78125 -20.09375 
Q 6.734375 -19.390625 3.21875 -17.921875 
L 4.890625 -9.1875 
Q 8.203125 -11.328125 11.90625 -12.34375 
Q 15.625 -13.375 19.828125 -13.375 
Q 28.375 -13.375 33.859375 -8.703125 
Q 39.359375 -4.046875 41.109375 4.6875 
L 41.890625 8.796875 
Q 38.140625 4.5 33.15625 2.25 
Q 28.171875 0 22.40625 0 
Q 14.109375 0 9.34375 5.484375 
Q 4.59375 10.984375 4.59375 20.609375 
Q 4.59375 28.171875 7.46875 35.421875 
Q 10.359375 42.671875 15.578125 48.296875 
Q 19.046875 52 23.65625 54 
Q 28.265625 56 33.296875 56 
Q 38.8125 56 42.90625 53.4375 
Q 47.015625 50.875 49.03125 46.1875 
L 50.59375 54.6875 
z
M 46.09375 34.625 
Q 46.09375 41.265625 42.96875 44.875 
Q 39.84375 48.484375 34.078125 48.484375 
Q 30.515625 48.484375 27.296875 47.0625 
Q 24.078125 45.65625 21.78125 43.109375 
Q 18.0625 38.921875 15.984375 33.234375 
Q 13.921875 27.546875 13.921875 21.484375 
Q 13.921875 14.75 17.0625 11.125 
Q 20.21875 7.515625 26.125 7.515625 
Q 34.671875 7.515625 40.375 15.25 
Q 46.09375 23 46.09375 34.625 
z
" id="DejaVuSans-Oblique-103"/>
      <path d="M 37.109375 75.984375 
L 37.109375 68.5 
L 28.515625 68.5 
Q 23.6875 68.5 21.796875 66.546875 
Q 19.921875 64.59375 19.921875 59.515625 
L 19.921875 54.6875 
L 34.71875 54.6875 
L 34.71875 47.703125 
L 19.921875 47.703125 
L 19.921875 0 
L 10.890625 0 
L 10.890625 47.703125 
L 2.296875 47.703125 
L 2.296875 54.6875 
L 10.890625 54.6875 
L 10.890625 58.5 
Q 10.890625 67.625 15.140625 71.796875 
Q 19.390625 75.984375 28.609375 75.984375 
z
" id="DejaVuSans-102"/>
     </defs>
     <g transform="translate(372.992216 158.698125)scale(0.1 -0.1)">
      <use transform="translate(0 0.015625)" xlink:href="#DejaVuSans-71"/>
      <use transform="translate(77.490234 0.015625)" xlink:href="#DejaVuSans-114"/>
      <use transform="translate(118.603516 0.015625)" xlink:href="#DejaVuSans-97"/>
      <use transform="translate(179.882812 0.015625)" xlink:href="#DejaVuSans-100"/>
      <use transform="translate(243.359375 0.015625)" xlink:href="#DejaVuSans-105"/>
      <use transform="translate(271.142578 0.015625)" xlink:href="#DejaVuSans-101"/>
      <use transform="translate(332.666016 0.015625)" xlink:href="#DejaVuSans-110"/>
      <use transform="translate(396.044922 0.015625)" xlink:href="#DejaVuSans-116"/>
      <use transform="translate(435.253906 0.015625)" xlink:href="#DejaVuSans-32"/>
      <use transform="translate(467.041016 0.015625)" xlink:href="#DejaVuSans-Oblique-103"/>
      <use transform="translate(530.517578 -16.390625)scale(0.7)" xlink:href="#DejaVuSans-Oblique-105"/>
      <use transform="translate(552.700195 0.015625)" xlink:href="#DejaVuSans-32"/>
      <use transform="translate(584.487305 0.015625)" xlink:href="#DejaVuSans-102"/>
      <use transform="translate(619.692383 0.015625)" xlink:href="#DejaVuSans-111"/>
      <use transform="translate(680.874023 0.015625)" xlink:href="#DejaVuSans-114"/>
      <use transform="translate(721.987305 0.015625)" xlink:href="#DejaVuSans-32"/>
      <use transform="translate(753.774414 0.015625)" xlink:href="#DejaVuSans-101"/>
      <use transform="translate(815.297852 0.015625)" xlink:href="#DejaVuSans-120"/>
      <use transform="translate(874.477539 0.015625)" xlink:href="#DejaVuSans-97"/>
      <use transform="translate(935.756836 0.015625)" xlink:href="#DejaVuSans-109"/>
      <use transform="translate(1033.168945 0.015625)" xlink:href="#DejaVuSans-112"/>
      <use transform="translate(1096.645508 0.015625)" xlink:href="#DejaVuSans-108"/>
      <use transform="translate(1124.428711 0.015625)" xlink:href="#DejaVuSans-101"/>
      <use transform="translate(1185.952148 0.015625)" xlink:href="#DejaVuSans-32"/>
      <use transform="translate(1217.739258 0.015625)" xlink:href="#DejaVuSans-Oblique-105"/>
     </g>
    </g>
    <g id="line2d_73">
     <path d="M 344.992216 170.798125 
L 364.992216 170.798125 
" style="fill:none;stroke:#d62728;stroke-dasharray:1.5,2.475;stroke-dashoffset:0;stroke-width:1.5;"/>
    </g>
    <g id="line2d_74"/>
    <g id="text_48">
     <!-- Optimal model $\widehat{w}$ -->
     <defs>
      <path d="M 39.40625 66.21875 
Q 28.65625 66.21875 22.328125 58.203125 
Q 16.015625 50.203125 16.015625 36.375 
Q 16.015625 22.609375 22.328125 14.59375 
Q 28.65625 6.59375 39.40625 6.59375 
Q 50.140625 6.59375 56.421875 14.59375 
Q 62.703125 22.609375 62.703125 36.375 
Q 62.703125 50.203125 56.421875 58.203125 
Q 50.140625 66.21875 39.40625 66.21875 
z
M 39.40625 74.21875 
Q 54.734375 74.21875 63.90625 63.9375 
Q 73.09375 53.65625 73.09375 36.375 
Q 73.09375 19.140625 63.90625 8.859375 
Q 54.734375 -1.421875 39.40625 -1.421875 
Q 24.03125 -1.421875 14.8125 8.828125 
Q 5.609375 19.09375 5.609375 36.375 
Q 5.609375 53.65625 14.8125 63.9375 
Q 24.03125 74.21875 39.40625 74.21875 
z
" id="DejaVuSans-79"/>
      <path d="M -17.09375 56.40625 
L -27 56.40625 
L -66 70.90625 
L -105.09375 56.40625 
L -115 56.40625 
L -68.40625 77.703125 
L -63.59375 77.703125 
z
" id="STIXSizeTwoSym-Regular-770"/>
     </defs>
     <g transform="translate(372.992216 174.298125)scale(0.1 -0.1)">
      <use transform="translate(0 0.015625)" xlink:href="#DejaVuSans-79"/>
      <use transform="translate(78.710938 0.015625)" xlink:href="#DejaVuSans-112"/>
      <use transform="translate(142.1875 0.015625)" xlink:href="#DejaVuSans-116"/>
      <use transform="translate(181.396484 0.015625)" xlink:href="#DejaVuSans-105"/>
      <use transform="translate(209.179688 0.015625)" xlink:href="#DejaVuSans-109"/>
      <use transform="translate(306.591797 0.015625)" xlink:href="#DejaVuSans-97"/>
      <use transform="translate(367.871094 0.015625)" xlink:href="#DejaVuSans-108"/>
      <use transform="translate(395.654297 0.015625)" xlink:href="#DejaVuSans-32"/>
      <use transform="translate(427.441406 0.015625)" xlink:href="#DejaVuSans-109"/>
      <use transform="translate(524.853516 0.015625)" xlink:href="#DejaVuSans-111"/>
      <use transform="translate(586.035156 0.015625)" xlink:href="#DejaVuSans-100"/>
      <use transform="translate(649.511719 0.015625)" xlink:href="#DejaVuSans-101"/>
      <use transform="translate(711.035156 0.015625)" xlink:href="#DejaVuSans-108"/>
      <use transform="translate(738.818359 0.015625)" xlink:href="#DejaVuSans-32"/>
      <use transform="translate(877.114746 20.09375)scale(0.835361)" xlink:href="#STIXSizeTwoSym-Regular-770"/>
      <use transform="translate(770.605469 0.015625)" xlink:href="#DejaVuSans-Oblique-119"/>
     </g>
    </g>
   </g>
  </g>
 </g>
 <defs>
  <clipPath id="pe1be7fc6c9">
   <rect height="163.08" width="243.490909" x="43.803125" y="22.318125"/>
  </clipPath>
  <clipPath id="paf6de7d7d8">
   <rect height="163.08" width="243.490909" x="335.992216" y="22.318125"/>
  </clipPath>
 </defs>
</svg>
